<?xml version="1.0" standalone="no"?>
<!DOCTYPE svg PUBLIC "-//W3C//DTD SVG 20010904//EN"
 "http://www.w3.org/TR/2001/REC-SVG-20010904/DTD/svg10.dtd">
<svg version="1.0" xmlns="http://www.w3.org/2000/svg"
 width="512.000000pt" height="512.000000pt" viewBox="0 0 512.000000 512.000000"
 preserveAspectRatio="xMidYMid meet">

<g transform="translate(0.000000,512.000000) scale(0.100000,-0.100000)" stroke="none">
<path d="M2460 4668 c-25 -14 -58 -44 -75 -67 -30 -43 -30 -43 -33 -204 -4
-177 3 -218 45 -267 89 -106 256 -97 338 18 l30 44 0 182 0 183 -27 39 c-44
62 -90 88 -167 92 -55 3 -74 -1 -111 -20z"/>
<path d="M3835 4111 c-62 -35 -232 -211 -252 -260 -9 -20 -15 -59 -15 -87 1
-142 134 -239 272 -198 45 13 69 31 161 121 121 118 149 163 149 241 0 65 -17
108 -60 150 -69 69 -169 82 -255 33z"/>
<path d="M1140 4107 c-48 -15 -113 -83 -128 -133 -29 -99 -5 -163 104 -275
126 -129 188 -159 288 -137 72 15 140 85 155 159 19 92 -2 140 -110 253 -129
135 -203 167 -309 133z"/>
<path d="M2420 3833 c-187 -20 -408 -101 -565 -206 -83 -56 -108 -77 -203
-170 -335 -330 -457 -843 -307 -1294 147 -442 504 -760 965 -859 119 -26 381
-26 500 0 513 111 895 493 1006 1006 26 119 26 381 0 500 -99 461 -418 818
-859 965 -160 53 -371 76 -537 58z m310 -437 c167 -35 308 -112 431 -235 166
-167 248 -364 249 -598 0 -292 -136 -549 -379 -711 -143 -96 -298 -142 -476
-142 -469 0 -845 378 -845 850 0 232 82 432 245 596 125 126 262 202 428 238
82 18 266 19 347 2z"/>
<path d="M2480 3184 c-45 -20 -87 -59 -111 -106 -18 -35 -19 -65 -19 -518 0
-453 1 -483 19 -518 57 -110 156 -143 326 -107 286 59 505 330 505 625 0 236
-142 466 -350 569 -134 65 -292 89 -370 55z"/>
<path d="M539 2747 c-24 -13 -57 -43 -74 -66 -27 -39 -30 -50 -30 -120 0 -68
3 -82 27 -117 15 -21 44 -50 65 -64 36 -24 41 -25 219 -25 l182 0 44 30 c138
97 118 306 -34 370 -28 11 -75 15 -196 15 -147 0 -162 -2 -203 -23z"/>
<path d="M4180 2754 c-141 -62 -168 -258 -50 -357 49 -42 91 -49 266 -45 157
3 162 4 200 30 21 15 50 44 64 65 21 31 25 48 25 113 0 65 -4 82 -25 113 -14
21 -43 50 -64 65 -39 27 -42 27 -210 29 -137 2 -178 0 -206 -13z"/>
<path d="M1254 1526 c-49 -21 -206 -173 -236 -229 -47 -83 -33 -175 36 -243
64 -65 160 -82 245 -44 56 26 205 171 232 226 51 106 10 232 -93 285 -44 23
-138 25 -184 5z"/>
<path d="M3740 1507 c-48 -15 -113 -83 -128 -133 -29 -98 -9 -150 102 -265 88
-91 137 -119 211 -119 152 0 248 149 186 287 -26 55 -166 201 -216 224 -44 21
-102 23 -155 6z"/>
<path d="M2510 1061 c-78 -25 -131 -74 -151 -139 -6 -23 -9 -100 -7 -198 3
-152 4 -163 28 -197 14 -21 43 -50 64 -65 35 -24 49 -27 116 -27 67 0 81 3
116 27 21 15 50 44 64 65 24 34 25 45 28 197 4 175 -3 217 -45 266 -48 57
-151 91 -213 71z"/>
</g>
</svg>
