<?xml version="1.0" standalone="no"?>
<!DOCTYPE svg PUBLIC "-//W3C//DTD SVG 20010904//EN"
 "http://www.w3.org/TR/2001/REC-SVG-20010904/DTD/svg10.dtd">
<svg version="1.0" xmlns="http://www.w3.org/2000/svg"
 width="1024.000000pt" height="710.000000pt" viewBox="0 0 1024.000000 710.000000"
 preserveAspectRatio="xMidYMid meet">

<g transform="translate(0.000000,710.000000) scale(0.100000,-0.100000)"
fill="#000000" stroke="none">
<path d="M4440 6569 c-473 -21 -1051 -86 -1368 -154 -304 -66 -468 -161 -590
-342 -76 -112 -592 -991 -592 -1008 0 -6 129 2 207 11 l43 5 231 387 c288 479
316 522 382 571 51 38 156 96 162 89 2 -2 -11 -28 -29 -58 -70 -117 -222 -379
-279 -480 -32 -58 -111 -194 -174 -303 -64 -109 -114 -200 -112 -201 2 -2 83
2 179 9 573 44 1032 56 2310 62 1400 6 2179 -8 2873 -53 136 -9 250 -14 253
-11 3 2 -34 69 -82 148 -48 79 -174 297 -282 484 -107 187 -204 353 -214 368
-11 16 -17 31 -14 34 18 19 174 -86 225 -151 33 -41 196 -303 414 -666 102
-170 141 -226 159 -231 38 -10 254 -21 243 -12 -6 4 -80 125 -164 268 -85 143
-180 303 -211 355 -32 52 -90 151 -130 220 -160 275 -261 371 -470 449 -269
100 -891 179 -1645 211 -275 11 -1052 11 -1325 -1z m1129 -472 c58 -30 82
-105 51 -162 -29 -55 -33 -55 -501 -55 l-431 0 -34 34 c-28 28 -34 42 -34 76
0 52 13 76 53 100 30 19 54 20 452 20 314 0 426 -3 444 -13z m-1109 -194 c0
-36 48 -120 85 -151 22 -18 59 -36 87 -42 30 -6 224 -10 502 -10 510 0 524 2
588 67 38 39 68 97 68 133 0 16 6 20 35 20 54 0 814 -39 868 -44 102 -11 191
-87 217 -186 6 -25 13 -53 16 -62 5 -16 -2 -18 -48 -18 l-53 0 -30 57 c-36 69
-78 99 -148 108 -29 4 -156 5 -282 3 -224 -3 -231 -4 -275 -28 -58 -33 -80
-72 -136 -248 l-46 -142 -780 2 -781 3 -52 156 c-29 86 -60 168 -70 183 -10
15 -36 37 -59 49 -38 20 -57 22 -292 25 -172 3 -264 0 -295 -8 -52 -14 -111
-71 -129 -124 -12 -36 -12 -36 -71 -36 -58 0 -60 1 -53 23 39 126 78 183 151
217 42 20 78 24 283 36 129 8 296 18 370 22 74 5 179 10 233 11 86 1 97 -1 97
-16z"/>
<path d="M1255 5555 c-199 -26 -247 -38 -296 -71 -57 -39 -119 -172 -119 -257
0 -54 36 -114 86 -143 39 -23 49 -24 213 -24 l172 0 19 -46 c11 -25 20 -55 20
-66 0 -15 4 -18 18 -13 48 18 163 35 244 35 l90 0 -49 38 c-53 42 -113 107
-113 122 0 6 16 10 35 10 48 0 82 18 106 57 19 30 21 46 17 161 -3 112 -6 131
-25 158 -50 69 -134 77 -418 39z"/>
<path d="M8644 5561 c-73 -33 -84 -60 -84 -206 0 -150 10 -177 74 -205 23 -11
52 -17 64 -13 12 3 22 1 22 -4 0 -10 -110 -119 -151 -149 l-25 -19 90 3 c82 3
190 -12 236 -32 12 -5 22 10 44 59 l28 65 170 0 c183 0 200 4 250 57 52 55 60
112 28 214 -26 87 -61 134 -118 163 -61 30 -113 42 -307 66 -200 25 -268 25
-321 1z"/>
<path d="M1895 4903 c6 -5 44 -34 85 -65 41 -31 111 -94 155 -139 l80 -82 -55
31 c-79 44 -199 90 -309 119 -132 35 -319 37 -436 5 -80 -22 -218 -84 -243
-109 -8 -7 -29 -25 -47 -39 -52 -40 -139 -151 -178 -230 -43 -86 -64 -166 -69
-259 l-3 -70 185 -41 c102 -23 187 -41 189 -39 2 2 3 54 2 114 -2 133 10 183
55 218 51 38 91 38 284 -2 259 -54 962 -198 1140 -234 164 -33 526 -110 548
-117 24 -7 -529 -486 -606 -524 l-43 -22 -207 36 c-501 87 -948 166 -959 170
-7 3 -15 1 -18 -4 -3 -5 -1 -83 4 -172 6 -90 15 -244 21 -343 10 -161 28 -380
60 -709 12 -121 31 -166 78 -185 28 -11 145 -31 150 -26 2 2 -1 27 -7 57 -24
117 -60 579 -77 969 l-7 157 26 26 c35 35 80 35 116 -2 27 -27 29 -33 35 -157
29 -550 72 -999 102 -1057 15 -28 24 -31 138 -43 33 -4 66 -9 74 -13 12 -4 14
1 9 24 -45 206 -94 715 -100 1032 -2 119 -1 124 22 143 34 28 92 25 120 -5 18
-19 24 -39 27 -88 2 -35 9 -146 15 -248 25 -435 82 -862 118 -884 11 -7 210
-30 215 -25 3 2 -2 29 -10 59 -31 120 -82 537 -114 934 -13 153 -7 185 36 205
45 20 106 -7 118 -52 3 -12 14 -123 26 -247 37 -404 101 -847 132 -915 6 -14
21 -27 32 -30 21 -4 602 -72 706 -82 l55 -6 -50 34 c-27 19 -64 55 -81 81 -37
55 -47 92 -157 583 -142 631 -170 770 -164 797 10 39 400 416 457 441 45 20
61 21 1560 21 l1515 1 46 -23 c46 -22 389 -341 436 -405 13 -17 23 -43 23 -58
0 -30 -49 -268 -106 -516 -20 -87 -47 -205 -60 -263 -57 -259 -124 -531 -138
-557 -15 -29 -72 -87 -116 -118 -25 -17 -24 -17 40 -11 146 15 638 78 672 87
34 9 39 14 52 62 40 143 113 688 131 982 9 138 19 171 56 191 37 18 79 11 105
-18 16 -17 19 -35 17 -106 -5 -195 -61 -688 -108 -947 -13 -71 -23 -130 -22
-131 8 -7 204 29 215 39 22 23 40 112 66 332 37 309 55 510 64 692 7 152 9
164 32 188 32 34 88 35 120 0 23 -25 23 -25 17 -222 -10 -304 -55 -755 -91
-908 -8 -33 -13 -61 -11 -63 5 -5 178 19 201 28 29 11 39 57 69 307 34 288 43
403 55 668 9 195 13 234 28 254 42 56 122 48 142 -15 12 -36 8 -193 -11 -479
-11 -156 -53 -590 -64 -661 l-7 -41 61 8 c105 12 139 37 155 114 7 39 72 764
85 960 25 366 25 355 4 355 -16 0 -281 -45 -798 -136 -77 -13 -195 -33 -263
-45 l-124 -20 -46 27 c-25 15 -64 43 -86 63 -23 21 -70 61 -106 90 -115 94
-410 354 -410 360 0 8 6 9 455 102 1050 216 1431 290 1461 284 18 -3 44 -15
59 -27 45 -35 55 -74 55 -213 0 -116 1 -126 18 -121 37 11 328 70 349 70 21 1
22 4 16 66 -20 252 -156 460 -384 588 -228 128 -543 116 -841 -34 -103 -51
-109 -53 -90 -27 26 37 160 157 242 217 l65 48 -40 -8 c-112 -20 -282 -92
-430 -181 -73 -44 -437 -303 -580 -413 -33 -26 -76 -57 -95 -70 l-35 -24 29
39 c139 187 227 286 353 397 l105 93 -133 17 c-730 96 -1243 122 -2444 122
-870 0 -1018 -4 -1584 -40 -286 -18 -934 -85 -948 -98 -2 -1 29 -29 69 -62
110 -92 241 -236 413 -454 l20 -25 -30 22 c-27 21 -133 97 -475 344 -130 94
-291 195 -395 247 -85 42 -308 110 -280 85z"/>
<path d="M1444 4156 c-2 -6 -3 -92 -2 -191 l3 -179 275 -48 c151 -25 406 -70
565 -97 160 -28 295 -51 302 -51 6 0 87 57 180 126 92 69 174 128 181 131 27
11 9 20 -65 32 -85 13 -1087 214 -1301 260 -98 21 -135 26 -138 17z"/>
<path d="M8215 4045 c-308 -63 -642 -128 -742 -146 -101 -18 -183 -36 -183
-39 0 -3 17 -16 38 -29 20 -13 103 -73 183 -132 l147 -108 98 15 c55 8 146 23
204 34 58 11 229 40 380 65 285 46 432 72 463 81 15 5 17 23 17 190 l0 184
-22 -1 c-13 -1 -275 -52 -583 -114z"/>
<path d="M9382 4010 c0 -14 2 -19 5 -12 2 6 2 18 0 25 -3 6 -5 1 -5 -13z"/>
<path d="M871 3974 c0 -11 3 -14 6 -6 3 7 2 16 -1 19 -3 4 -6 -2 -5 -13z"/>
<path d="M872 2912 c0 -557 3 -1050 8 -1095 11 -112 41 -186 100 -250 l49 -54
3 -289 c3 -278 4 -291 26 -340 42 -92 58 -100 202 -108 229 -13 683 -17 750
-7 182 28 262 43 333 66 108 35 113 38 121 86 4 22 13 54 21 70 12 22 15 69
15 209 l0 180 2631 0 2631 0 -2 -233 c-2 -127 -2 -244 -2 -260 3 -43 61 -99
118 -113 184 -47 271 -54 574 -48 292 6 447 22 530 55 30 11 78 27 105 35 58
16 119 75 129 125 3 17 6 154 6 303 l0 272 41 39 c48 47 82 109 103 192 14 54
16 188 16 1108 0 836 -3 1046 -12 1038 -7 -5 -92 -25 -189 -43 l-176 -33 -12
-306 c-13 -335 -28 -543 -66 -931 -39 -395 -47 -427 -122 -489 -50 -42 -105
-56 -303 -81 -91 -12 -259 -34 -375 -51 -281 -40 -805 -104 -1095 -134 l-235
-25 -1660 0 -1660 0 -260 25 c-313 30 -567 62 -980 121 -170 25 -362 51 -425
60 -272 35 -334 54 -389 121 -46 55 -59 109 -76 308 -8 99 -22 250 -30 335
-22 227 -55 739 -56 855 0 55 -4 120 -7 145 l-7 45 -85 17 c-228 47 -279 61
-283 77 -3 9 -5 -440 -5 -997z m1878 -1183 c575 -63 415 -59 2375 -59 1952 0
1832 -3 2305 56 188 24 378 24 455 0 73 -22 178 -76 225 -117 l35 -30 -160 6
c-88 3 -212 7 -275 11 -89 4 -162 0 -325 -20 -486 -59 -372 -56 -2279 -56
-1930 0 -1822 -3 -2306 60 -170 22 -318 26 -383 10 -23 -6 -103 -10 -177 -8
l-135 3 50 38 c106 79 234 124 360 126 28 0 133 -8 235 -20z"/>
<path d="M4189 3711 l-555 -6 -51 -42 c-89 -75 -273 -273 -273 -294 0 -11 11
-68 24 -127 14 -59 50 -217 81 -352 31 -135 81 -355 111 -490 61 -275 70 -294
160 -340 l48 -25 1375 -3 c1527 -2 1427 -7 1510 64 23 20 48 48 56 63 7 15 43
160 79 322 36 162 97 429 135 593 70 297 70 299 52 325 -11 14 -84 90 -164
169 l-145 142 -553 0 c-305 1 -729 2 -944 4 -214 1 -640 0 -946 -3z m2434
-324 c37 -24 45 -62 20 -95 l-20 -27 -1492 -3 c-1480 -2 -1491 -2 -1511 18
-37 37 -16 102 40 123 8 3 672 5 1475 4 1377 -2 1462 -3 1488 -20z m-43 -442
c49 -25 52 -91 7 -119 -18 -12 -261 -15 -1452 -18 -1341 -3 -1432 -2 -1457 14
-34 22 -43 52 -28 89 8 19 23 32 44 38 18 5 632 10 1444 10 1245 1 1416 -1
1442 -14z m-89 -464 c32 -26 32 -86 0 -112 -22 -18 -69 -19 -1364 -19 l-1341
0 -23 22 c-33 30 -31 80 3 107 l27 21 1337 0 c1292 0 1339 -1 1361 -19z"/>
</g>
</svg>
